Coordinates
version=1
nRows=10
nColumns=40
inDegrees=yes

Units are S.I. units (second, meters, Newtons, ...)
Angles are in degrees.

endheader
time	pelvis_tilt	pelvis_list	pelvis_rotation	pelvis_tx	pelvis_ty	pelvis_tz	hip_flexion_r	hip_adduction_r	hip_rotation_r	knee_angle_r	knee_angle_r_beta	ankle_angle_r	subtalar_angle_r	mtp_angle_r	hip_flexion_l	hip_adduction_l	hip_rotation_l	knee_angle_l	knee_angle_l_beta	ankle_angle_l	subtalar_angle_l	mtp_angle_l	lumbar_extension	lumbar_bending	lumbar_rotation	arm_flex_r	arm_add_r	arm_rot_r	elbow_flex_r	pro_sup_r	wrist_flex_r	wrist_dev_r	arm_flex_l	arm_add_l	arm_rot_l	elbow_flex_l	pro_sup_l	wrist_flex_l	wrist_dev_l
      0.37000000	      1.15798625	      1.83855310	     -5.24645824	     -0.54389695	      0.87290822	      1.00560113	     -9.94701058	     -6.85674181	     -7.20636619	    -36.90087591	     -0.64404178	     -4.62933091	     -1.96359470	     -3.36848005	     25.55748007	     -1.01353560	     10.31667289	    -24.67108810	     -0.43059172	     -3.24302362	      4.90064077	     -5.73947086	     -8.52931001	     -2.72302796	      7.28951562	     12.66946332	    -13.78458971	     13.71070721	     30.61845938	     89.95437384	      0.00000000	      0.00000000	    -10.00139503	      9.83841671	    -17.40770421	      6.25082169	     89.95437384	      0.00000000	      0.00000000
      0.38000000	      1.22992062	      2.47234241	     -5.09626179	     -0.52801429	      0.87354227	      1.00346446	     -8.70903298	     -7.93668289	     -7.56727985	    -39.92082451	     -0.69674983	     -9.80309683	     -3.19159252	     -2.33956252	     25.18770779	     -1.90734841	     10.23543158	    -26.05658537	     -0.45477321	     -1.98952320	      4.27355133	     -5.64728543	     -8.44435913	     -3.31707230	      6.72894034	     12.30715252	    -13.46916538	     13.74630803	     29.87476829	     89.95437384	      0.00000000	      0.00000000	     -9.95484392	      9.76859634	    -17.98066710	      6.08172632	     89.95437384	      0.00000000	      0.00000000
      0.39000000	      1.18763371	      3.05300181	     -4.93773641	     -0.51235434	      0.87421749	      1.00189737	     -7.22806063	     -8.66858306	     -7.37683326	    -42.79804532	     -0.74696680	    -15.37088416	     -5.55176219	     -1.01612237	     24.74190426	     -2.71088379	     10.22395646	    -27.10771478	     -0.47311888	     -0.79393106	      3.79275062	     -5.51353516	     -8.25258889	     -3.91309701	      6.19587755	     11.84091720	    -13.06133079	     13.82848545	     29.15255789	     89.95437384	      0.00000000	      0.00000000	     -9.79163365	      9.82783805	    -18.54278181	      6.01633993	     89.95437384	      0.00000000	      0.00000000
      0.40000000	      1.10632390	      3.09353503	     -4.72995860	     -0.49750898	      0.87500106	      1.00079352	     -5.53680910	     -8.26282366	     -6.22384509	    -45.84155434	     -0.80008606	    -18.00038553	     -9.28219392	      6.69634568	     24.28383567	     -2.77991547	     10.50336260	    -28.18755668	     -0.49196567	      0.80184679	      2.53539412	     -1.80498650	     -8.15291550	     -3.90257832	      5.69831890	     11.42851655	    -12.71715241	     13.80630654	     28.42534572	     89.95437384	      0.00000000	      0.00000000	     -9.62722229	     10.13358591	    -21.05693930	      6.54535546	     89.95437384	      0.00000000	      0.00000000
      0.41000000	      1.34105998	      3.54875605	     -4.50011212	     -0.48251186	      0.87613733	      0.99913876	     -4.12011518	     -8.68247806	     -5.70867839	    -48.93319913	     -0.85404544	    -18.94072689	    -10.52297132	      6.87845948	     23.06825782	     -3.49960158	     10.60010098	    -28.42722671	     -0.49614870	      2.06042093	      1.78855012	     -2.03898480	     -8.35427200	     -4.33648982	      4.99286140	     11.19531361	    -12.32607928	     14.07159677	     27.40399681	     89.95437384	      0.00000000	      0.00000000	     -9.10374829	     10.08614975	    -21.12118324	      6.36031362	     89.95437384	      0.00000000	      0.00000000
      0.42000000	      0.99555905	      3.94070130	     -4.44759361	     -0.46841013	      0.87628559	      0.99796986	     -1.67281041	     -8.86844006	     -5.06828629	    -52.39427153	     -0.91445255	    -18.53401262	    -14.10566125	      7.76015899	     22.58055380	     -3.89790575	     11.16486457	    -28.74340929	     -0.50166713	      2.79076046	      1.00989462	     -2.15703826	     -7.94701172	     -4.68250111	      4.49871945	     10.84640559	    -12.00527980	     14.56392160	     26.59303927	     89.95437384	      0.00000000	      0.00000000	     -8.63665432	     10.15023056	    -21.14852189	      6.57974385	     89.95437384	      0.00000000	      0.00000000
      0.43000000	      1.32044077	      4.25830145	     -4.25755001	     -0.45407404	      0.87770712	      0.99659339	     -0.15408743	     -9.14627639	     -4.97871336	    -55.25107362	     -0.96431315	    -17.28492221	    -15.74427791	      7.87526694	     21.07137024	     -4.44819272	     11.30855472	    -28.57735063	     -0.49876886	      3.75723411	      0.17100421	     -2.39153164	     -8.29656630	     -4.96099437	      3.82594800	     10.65627431	    -11.63071541	     14.92915160	     25.54012439	     89.95437384	      0.00000000	      0.00000000	     -7.91469376	     10.16373574	    -21.42832083	      6.62164480	     89.95437384	      0.00000000	      0.00000000
      0.44000000	      1.41853656	      4.55376607	     -4.21684125	     -0.44001589	      0.87895694	      0.99547624	      1.77817661	     -9.36900424	     -4.76948168	    -57.84865396	     -1.00964948	    -16.13013212	    -17.03315853	      8.06883213	     19.76233773	     -4.89750185	     11.61688235	    -28.26518401	     -0.49332052	      4.47908012	     -0.61954525	     -2.59871726	     -8.40090733	     -5.20771003	      3.28425046	     10.38041510	    -11.31388456	     15.38341871	     24.58916551	     89.95437384	      0.00000000	      0.00000000	     -7.21652655	     10.23343172	    -21.73178795	      6.90464769	     89.95437384	      0.00000000	      0.00000000
      0.45000000	      1.04159106	      4.72222964	     -4.34864990	     -0.42641338	      0.87949850	      0.99483257	      4.49610462	     -9.30902189	     -4.33144317	    -60.46332294	     -1.05528406	    -13.92889403	    -17.24498136	     16.17749629	     19.12049263	     -4.95759362	     12.49376116	    -28.18607530	     -0.49193982	      4.86145328	     -1.77304850	     -3.27793977	     -7.94285752	     -5.28440735	      3.06250271	      9.91581671	    -11.17027316	     16.25937474	     23.88960434	     89.95437384	      0.00000000	      0.00000000	     -6.76697704	     10.84176324	    -25.76085903	      8.05825944	     89.95437384	      0.00000000	      0.00000000
      0.46000000	      1.23755844	      4.64916249	     -4.28454106	     -0.41252163	      0.88128511	      0.99405204	      6.19560333	     -8.93685340	     -4.09117770	    -62.05247190	     -1.08301994	    -12.93733956	    -17.45315515	     15.95086123	     17.65341175	     -5.14964522	     12.21402843	    -27.79971327	     -0.48519653	      5.61708176	     -2.13395262	     -3.40597295	     -8.17585888	     -5.12508465	      2.61888281	      9.57035962	    -10.90128905	     16.59784338	     22.96957809	     89.95437384	      0.00000000	      0.00000000	     -5.78081043	     10.81836924	    -25.76879129	      8.19647789	     89.95437384	      0.00000000	      0.00000000
